<svg width="24" height="25" viewBox="0 0 24 25" fill="none" xmlns="http://www.w3.org/2000/svg">
<path d="M21.3009 19.345C21.1753 19.908 20.8639 20.4124 20.4169 20.777C19.9285 21.2723 19.3465 21.6657 18.7048 21.9342C18.0631 22.2027 17.3745 22.3409 16.6789 22.341H16.3539C14.8939 22.2617 13.4644 21.8922 12.1489 21.254H12.1389C11.8339 21.112 11.5189 20.97 11.2139 20.797C9.67827 19.936 8.2698 18.8658 7.02886 17.617C5.41842 16.1043 4.09686 14.3111 3.12886 12.325C2.61441 11.2365 2.27103 10.0752 2.11086 8.882C1.87532 7.63301 2.01701 6.34216 2.51786 5.174C2.83405 4.64698 3.22024 4.16526 3.66586 3.742C3.86637 3.51525 4.11152 3.33231 4.38597 3.20464C4.66041 3.07697 4.95826 3.0073 5.26086 3C5.58996 3.03637 5.90856 3.13775 6.19816 3.29826C6.48776 3.45876 6.74259 3.6752 6.94786 3.935C7.40486 4.432 7.96286 4.95 8.42086 5.428L9.05086 6.048C9.42086 6.376 9.64986 6.834 9.69086 7.328C9.69086 7.781 9.52386 8.218 9.22286 8.557C9.02792 8.79409 8.82098 9.02105 8.60286 9.237L8.39986 9.45C8.28186 9.56 8.19186 9.696 8.13586 9.847C8.08586 9.99567 8.06586 10.148 8.07586 10.304C8.23686 10.735 8.48986 11.127 8.81586 11.452C9.32486 12.142 9.83286 12.742 10.3509 13.392C11.2878 14.4797 12.3998 15.4034 13.6409 16.125C13.7679 16.218 13.9139 16.28 14.0689 16.307C14.2029 16.317 14.3389 16.297 14.4649 16.247C14.8199 16.038 15.1349 15.77 15.3989 15.454C15.7539 15.0192 16.2636 14.7389 16.8209 14.672C17.3572 14.6794 17.8687 14.8987 18.2439 15.282C18.4469 15.454 18.6699 15.688 18.8839 15.912L19.1879 16.226L19.5029 16.531L20.0419 17.079C20.3632 17.3643 20.6645 17.6693 20.9459 17.994C21.2279 18.384 21.3549 18.867 21.3009 19.345ZM17.6549 12.386C17.4534 12.3839 17.2608 12.303 17.1183 12.1605C16.9759 12.0181 16.8949 11.8254 16.8929 11.624C16.8939 11.0488 16.7814 10.479 16.5617 9.94737C16.3421 9.41573 16.0197 8.93268 15.6129 8.52594C15.2062 8.11919 14.7231 7.79675 14.1915 7.57711C13.6599 7.35747 13.0901 7.24495 12.5149 7.246C12.3128 7.246 12.1189 7.16572 11.976 7.02282C11.8331 6.87991 11.7529 6.68609 11.7529 6.484C11.7529 6.2819 11.8331 6.08809 11.976 5.94518C12.1189 5.80228 12.3128 5.722 12.5149 5.722C13.2903 5.72081 14.0583 5.87267 14.7749 6.16885C15.4915 6.46503 16.1426 6.89973 16.6908 7.44801C17.2391 7.9963 17.6738 8.6474 17.97 9.364C18.2662 10.0806 18.418 10.8486 18.4169 11.624C18.4171 11.7241 18.3976 11.8233 18.3594 11.9159C18.3212 12.0085 18.2651 12.0926 18.1943 12.1634C18.1235 12.2342 18.0393 12.2903 17.9468 12.3285C17.8542 12.3667 17.755 12.3863 17.6549 12.386Z" fill="white"/>
<path d="M21.209 12.22C21.0077 12.2179 20.8152 12.1371 20.6728 11.9949C20.5304 11.8526 20.4493 11.6603 20.447 11.459C20.4486 10.4789 20.2569 9.50811 19.8829 8.60218C19.5089 7.69624 18.9599 6.87295 18.2674 6.1794C17.5748 5.48586 16.7524 4.93568 15.847 4.56033C14.9416 4.18499 13.9711 3.99187 12.991 3.992C12.8887 3.99571 12.7866 3.97876 12.691 3.94216C12.5954 3.90556 12.5081 3.85006 12.4344 3.77899C12.3607 3.70791 12.3021 3.6227 12.2621 3.52847C12.222 3.43423 12.2014 3.33289 12.2014 3.2305C12.2014 3.12811 12.222 3.02677 12.2621 2.93253C12.3021 2.83829 12.3607 2.75309 12.4344 2.68201C12.5081 2.61093 12.5954 2.55544 12.691 2.51884C12.7866 2.48224 12.8887 2.46529 12.991 2.469C14.1711 2.469 15.3396 2.7016 16.4298 3.15352C17.5199 3.60543 18.5103 4.26778 19.3443 5.10271C20.1783 5.93764 20.8396 6.92877 21.2903 8.01943C21.741 9.11009 21.9723 10.2789 21.971 11.459C21.9713 11.5591 21.9517 11.6583 21.9135 11.7509C21.8753 11.8435 21.8192 11.9276 21.7484 11.9984C21.6776 12.0692 21.5935 12.1253 21.5009 12.1635C21.4083 12.2017 21.3091 12.2203 21.209 12.22Z" fill="white"/>
</svg>
