<svg width="24" height="24" viewBox="0 0 24 24" fill="none" xmlns="http://www.w3.org/2000/svg">
<path d="M6.0539 11.4094L16.6195 3.15709C16.6471 3.13536 16.6803 3.12185 16.7153 3.11812C16.7502 3.11439 16.7855 3.12059 16.8171 3.13601C16.8486 3.15143 16.8752 3.17544 16.8938 3.20529C16.9123 3.23514 16.922 3.26961 16.9219 3.30475V5.11647C16.9219 5.23131 16.868 5.34147 16.7789 5.41178L8.3414 12.0001L16.7789 18.5883C16.8703 18.6587 16.9219 18.7688 16.9219 18.8837V20.6954C16.9219 20.8524 16.7414 20.9391 16.6195 20.843L6.0539 12.5907C5.9641 12.5206 5.89146 12.431 5.84149 12.3287C5.79153 12.2263 5.76555 12.114 5.76555 12.0001C5.76555 11.8862 5.79153 11.7738 5.84149 11.6714C5.89146 11.5691 5.9641 11.4795 6.0539 11.4094Z" fill="white"/>
</svg>
