<svg width="34" height="34" viewBox="0 0 34 34" fill="none" xmlns="http://www.w3.org/2000/svg">
<path d="M17 16.2917C16.0607 16.2917 15.1599 15.9185 14.4957 15.2543C13.8315 14.5902 13.4584 13.6893 13.4584 12.75C13.4584 11.8107 13.8315 10.9099 14.4957 10.2457C15.1599 9.58148 16.0607 9.20834 17 9.20834C17.9394 9.20834 18.8402 9.58148 19.5044 10.2457C20.1686 10.9099 20.5417 11.8107 20.5417 12.75C20.5417 13.2151 20.4501 13.6757 20.2721 14.1053C20.0941 14.535 19.8333 14.9255 19.5044 15.2543C19.1755 15.5832 18.7851 15.8441 18.3554 16.0221C17.9257 16.2001 17.4651 16.2917 17 16.2917ZM17 2.83334C14.37 2.83334 11.8476 3.87813 9.9879 5.73787C8.12816 7.5976 7.08337 10.1199 7.08337 12.75C7.08337 20.1875 17 31.1667 17 31.1667C17 31.1667 26.9167 20.1875 26.9167 12.75C26.9167 10.1199 25.8719 7.5976 24.0122 5.73787C22.1524 3.87813 19.6301 2.83334 17 2.83334Z" fill="black"/>
</svg>
