<svg width="24" height="25" viewBox="0 0 24 25" fill="none" xmlns="http://www.w3.org/2000/svg">
<path d="M22 8.035V17.5C22 18.2652 21.7077 19.0015 21.1827 19.5583C20.6578 20.115 19.9399 20.4501 19.176 20.495L19 20.5H5C4.23479 20.5 3.49849 20.2077 2.94174 19.6827C2.38499 19.1578 2.04989 18.4399 2.005 17.676L2 17.5V8.035L11.445 14.332L11.561 14.398C11.6977 14.4648 11.8478 14.4995 12 14.4995C12.1522 14.4995 12.3023 14.4648 12.439 14.398L12.555 14.332L22 8.035Z" fill="white"/>
<path d="M19 4.5C20.08 4.5 21.027 5.07 21.555 5.927L12 12.297L2.44501 5.927C2.6958 5.51982 3.0403 5.1785 3.44978 4.93149C3.85926 4.68448 4.32186 4.53894 4.79901 4.507L5.00001 4.5H19Z" fill="white"/>
</svg>
